<?xml version="1.0" standalone="no"?>
<!DOCTYPE svg PUBLIC "-//W3C//DTD SVG 20010904//EN"
 "http://www.w3.org/TR/2001/REC-SVG-20010904/DTD/svg10.dtd">
<svg version="1.0" xmlns="http://www.w3.org/2000/svg"
 width="500.000000pt" height="500.000000pt" viewBox="0 0 500.000000 500.000000"
 preserveAspectRatio="xMidYMid meet">
<metadata>
Created by potrace 1.14, written by Peter Selinger 2001-2017
</metadata>
<g transform="translate(0.000000,500.000000) scale(0.100000,-0.100000)"
fill="#000000" stroke="none">
<path d="M857 3293 c-4 -3 -7 -23 -7 -43 l0 -37 62 -6 c65 -6 104 -27 125 -68
10 -18 13 -195 13 -754 0 -627 -2 -739 -15 -790 -35 -132 -93 -189 -213 -207
l-72 -12 0 -49 0 -50 81 7 c202 18 310 79 379 216 54 106 53 90 59 892 l6 748
26 25 c27 27 80 44 137 45 31 0 32 1 32 45 l0 45 -303 0 c-167 0 -307 -3 -310
-7z"/>
<path d="M1610 3256 l0 -43 53 -6 c65 -6 102 -23 124 -56 17 -24 18 -70 21
-587 2 -435 0 -569 -10 -599 -18 -54 -55 -78 -128 -83 l-60 -4 0 -44 0 -44
563 0 564 0 6 122 c4 66 7 168 7 225 l0 103 -53 0 -54 0 -12 -97 c-14 -107
-30 -155 -64 -191 -46 -50 -60 -52 -312 -52 l-235 0 0 600 c0 648 0 650 52
684 14 9 52 19 86 22 l62 7 0 43 0 44 -305 0 -305 0 0 -44z"/>
<path d="M2928 3294 c-5 -4 -8 -24 -8 -44 l0 -37 62 -6 c65 -6 104 -27 125
-68 10 -18 13 -162 13 -599 0 -552 -1 -576 -20 -607 -21 -35 -67 -53 -137 -53
l-43 0 0 -45 0 -45 310 0 310 0 0 45 0 45 -42 0 c-71 0 -117 18 -138 53 -18
29 -20 52 -20 280 l0 247 84 0 85 0 163 -272 c90 -150 181 -291 204 -314 54
-55 113 -74 252 -81 l112 -6 0 47 c0 43 -2 46 -25 46 -39 0 -99 35 -138 80
-32 38 -330 501 -342 531 -3 10 18 25 66 48 88 42 161 112 197 188 24 53 27
69 27 173 0 105 -3 120 -28 171 -49 101 -134 163 -275 201 -70 19 -112 21
-432 25 -195 3 -358 1 -362 -3z m724 -124 c110 -41 153 -123 153 -290 -1 -125
-22 -197 -75 -250 -52 -52 -115 -70 -267 -77 l-123 -6 0 328 0 328 128 -6 c95
-4 141 -11 184 -27z"/>
</g>
</svg>
